<svg width="45" height="46" viewBox="0 0 45 46" fill="none" xmlns="http://www.w3.org/2000/svg">
<g id="Group">
<path id="Vector" d="M18.54 14.0001C16.56 13.4601 14.4 13.2801 13.14 13.1001C12.06 13.1001 8.64 13.1001 7.73995 13.6401C6.84 14.3601 7.2 16.1601 7.37995 16.7001C7.37995 17.2401 7.73995 18.1401 7.91991 18.5001C8.45995 19.5801 8.9999 19.7601 9.89995 19.9401C10.7999 20.3001 11.88 20.3001 13.14 20.3001C15.3 20.3001 16.92 19.9401 17.6399 19.4001C18.3599 18.8602 19.0799 17.7802 19.4399 17.0602C19.44 16.7 20.7 14.54 18.54 14.0001ZM14.4 18.5C13.32 18.5 12.6 17.78 12.6 16.7C12.6 15.62 13.32 14.9 14.4 14.9C15.48 14.9 16.2 15.62 16.2 16.7C16.2 17.78 15.48 18.5 14.4 18.5Z" fill="white"/>
<path id="Vector_2" d="M22.5 0.5C10.08 0.5 0 10.58 0 23C0 35.42 10.08 45.4999 22.5 45.4999C34.92 45.4999 44.9999 35.4199 44.9999 23C45 10.58 34.92 0.5 22.5 0.5ZM32.4 31.1C32.4 31.1 28.8 34.7 22.5 34.7C16.1999 34.7 12.5999 31.1 12.5999 31.1V29.3C12.5999 29.3 16.1999 32.9 22.5 32.9C28.8 32.9 32.4 29.3 32.4 29.3V31.1ZM41.04 14C40.14 14.36 39.78 15.08 39.78 15.08C39.78 15.08 39.6 15.8 38.88 18.5C38.1601 21.2 36.54 21.56 36.54 21.56C36.54 21.56 34.38 22.1 32.0401 22.1C29.7001 22.1 28.2601 21.92 26.6401 21.38C25.0201 20.66 24.4801 18.68 24.4801 18.68C24.4801 18.68 23.7602 17.06 23.2201 15.44C23.2201 15.26 22.8601 15.08 22.6801 14.9C22.5001 15.08 22.1401 15.08 22.1401 15.44C21.6002 17.06 20.8802 18.68 20.8802 18.68C20.8802 18.68 20.16 20.66 18.72 21.38C17.1 22.1 15.66 22.1 13.32 22.1C10.98 22.1 8.82005 21.56 8.82005 21.56C8.82005 21.56 6.84 21.2 6.12 18.5C5.4 15.8 5.22005 15.08 5.22005 15.08C5.22005 15.08 4.86005 14.36 3.96009 14C3.60009 14 3.60009 11.84 4.14005 11.6601C8.28009 10.9401 16.38 10.9401 22.14 12.3801C22.3201 12.3801 22.3201 12.3801 22.5 12.3801C22.68 12.3801 22.68 12.3801 22.86 12.3801C28.62 10.9401 36.7201 10.9401 40.86 11.6601C41.4 11.84 41.58 14 41.04 14Z" fill="black"/>
<path id="Vector_3" d="M37.08 13.64C36.18 13.1 32.94 13.1 31.68 13.1C30.6 13.1 28.44 13.2801 26.28 14C24.1201 14.72 25.38 16.7 25.5601 17.24C25.74 17.96 26.46 19.04 27.3601 19.58C28.08 20.12 29.7 20.48 31.86 20.48C33.1201 20.48 34.02 20.48 35.1 20.2999C36 20.1199 36.54 19.9399 37.08 18.8599C37.26 18.3199 37.62 17.5999 37.62 17.0599C37.8 16.1601 38.16 14.3601 37.08 13.64ZM30.6 18.5C29.52 18.5 28.8 17.78 28.8 16.7C28.8 15.62 29.52 14.9 30.6 14.9C31.68 14.9 32.4 15.62 32.4 16.7C32.4 17.78 31.68 18.5 30.6 18.5Z" fill="white"/>
</g>
</svg>
